<svg xmlns="http://www.w3.org/2000/svg" width="20" height="13" viewBox="0 0 20 13" fill="none">
  <path d="M 20.687 0.727 C 21.088 0.347 21.106 -0.286 20.727 -0.687 C 20.347 -1.088 19.714 -1.106 19.313 -0.727 L 20.687 0.727 Z M 6.25 13 L 5.563 13.727 C 5.948 14.091 6.552 14.091 6.937 13.727 L 6.25 13 Z M 0.687 6.364 C 0.286 5.985 -0.347 6.003 -0.727 6.404 C -1.106 6.805 -1.088 7.438 -0.687 7.818 L 0.687 6.364 Z M 19.313 -0.727 L 5.563 12.273 L 6.937 13.727 L 20.687 0.727 L 19.313 -0.727 Z M 6.937 12.273 L 0.687 6.364 L -0.687 7.818 L 5.563 13.727 L 6.937 12.273 Z" fill="currentColor" fill-rule="nonzero"></path>
</svg>